<mxfile host="app.diagrams.net" agent="Mozilla/5.0 (Windows NT 10.0; Win64; x64) AppleWebKit/537.36 (KHTML, like Gecko) Chrome/134.0.0.0 Safari/537.36" version="26.1.0">
  <diagram name="Página-1" id="TxFKr5DOCqAWNmkFsNP2">
    <mxGraphModel dx="1434" dy="780" grid="1" gridSize="10" guides="1" tooltips="1" connect="1" arrows="1" fold="1" page="1" pageScale="1" pageWidth="827" pageHeight="1169" math="0" shadow="0">
      <root>
        <mxCell id="0" />
        <mxCell id="1" parent="0" />
        <mxCell id="VpEmQQC8AgEX3v9Hny0l-5" value="" style="edgeStyle=orthogonalEdgeStyle;rounded=0;orthogonalLoop=1;jettySize=auto;html=1;" edge="1" parent="1" source="VpEmQQC8AgEX3v9Hny0l-1" target="VpEmQQC8AgEX3v9Hny0l-4">
          <mxGeometry relative="1" as="geometry" />
        </mxCell>
        <mxCell id="VpEmQQC8AgEX3v9Hny0l-1" value="logar" style="rounded=0;whiteSpace=wrap;html=1;" vertex="1" parent="1">
          <mxGeometry x="120" y="380" width="120" height="60" as="geometry" />
        </mxCell>
        <mxCell id="VpEmQQC8AgEX3v9Hny0l-14" style="edgeStyle=orthogonalEdgeStyle;rounded=0;orthogonalLoop=1;jettySize=auto;html=1;entryX=0.5;entryY=0;entryDx=0;entryDy=0;" edge="1" parent="1" source="VpEmQQC8AgEX3v9Hny0l-3" target="VpEmQQC8AgEX3v9Hny0l-13">
          <mxGeometry relative="1" as="geometry" />
        </mxCell>
        <mxCell id="VpEmQQC8AgEX3v9Hny0l-3" value="Navegar" style="rounded=0;whiteSpace=wrap;html=1;" vertex="1" parent="1">
          <mxGeometry x="520" y="380" width="120" height="60" as="geometry" />
        </mxCell>
        <mxCell id="VpEmQQC8AgEX3v9Hny0l-10" value="" style="edgeStyle=orthogonalEdgeStyle;rounded=0;orthogonalLoop=1;jettySize=auto;html=1;" edge="1" parent="1" source="VpEmQQC8AgEX3v9Hny0l-4" target="VpEmQQC8AgEX3v9Hny0l-6">
          <mxGeometry relative="1" as="geometry" />
        </mxCell>
        <mxCell id="VpEmQQC8AgEX3v9Hny0l-4" value="página inicial&lt;div&gt;&lt;br&gt;&lt;/div&gt;" style="rounded=0;whiteSpace=wrap;html=1;" vertex="1" parent="1">
          <mxGeometry x="120" y="510" width="120" height="60" as="geometry" />
        </mxCell>
        <mxCell id="VpEmQQC8AgEX3v9Hny0l-6" value="Logar&lt;br&gt;&lt;div&gt;&lt;br&gt;&lt;/div&gt;" style="rounded=0;whiteSpace=wrap;html=1;" vertex="1" parent="1">
          <mxGeometry x="260" y="510" width="120" height="60" as="geometry" />
        </mxCell>
        <mxCell id="VpEmQQC8AgEX3v9Hny0l-11" value="" style="edgeStyle=orthogonalEdgeStyle;rounded=0;orthogonalLoop=1;jettySize=auto;html=1;" edge="1" parent="1" source="VpEmQQC8AgEX3v9Hny0l-7" target="VpEmQQC8AgEX3v9Hny0l-8">
          <mxGeometry relative="1" as="geometry" />
        </mxCell>
        <mxCell id="VpEmQQC8AgEX3v9Hny0l-7" value="&lt;div&gt;Página Login&lt;/div&gt;" style="rounded=0;whiteSpace=wrap;html=1;" vertex="1" parent="1">
          <mxGeometry x="120" y="600" width="120" height="60" as="geometry" />
        </mxCell>
        <mxCell id="VpEmQQC8AgEX3v9Hny0l-8" value="Preencher dados" style="rounded=0;whiteSpace=wrap;html=1;" vertex="1" parent="1">
          <mxGeometry x="260" y="600" width="120" height="60" as="geometry" />
        </mxCell>
        <mxCell id="VpEmQQC8AgEX3v9Hny0l-17" style="edgeStyle=orthogonalEdgeStyle;rounded=0;orthogonalLoop=1;jettySize=auto;html=1;exitX=1;exitY=0.5;exitDx=0;exitDy=0;entryX=0;entryY=0.5;entryDx=0;entryDy=0;" edge="1" parent="1" source="VpEmQQC8AgEX3v9Hny0l-12" target="VpEmQQC8AgEX3v9Hny0l-16">
          <mxGeometry relative="1" as="geometry" />
        </mxCell>
        <mxCell id="VpEmQQC8AgEX3v9Hny0l-12" value="Página Sucesso" style="rounded=0;whiteSpace=wrap;html=1;" vertex="1" parent="1">
          <mxGeometry x="120" y="680" width="120" height="60" as="geometry" />
        </mxCell>
        <mxCell id="VpEmQQC8AgEX3v9Hny0l-13" value="página inicial&lt;div&gt;&lt;br&gt;&lt;/div&gt;" style="rounded=0;whiteSpace=wrap;html=1;" vertex="1" parent="1">
          <mxGeometry x="520" y="510" width="120" height="60" as="geometry" />
        </mxCell>
        <mxCell id="VpEmQQC8AgEX3v9Hny0l-15" value="&lt;div&gt;Navegar&lt;/div&gt;" style="rounded=0;whiteSpace=wrap;html=1;" vertex="1" parent="1">
          <mxGeometry x="690" y="510" width="120" height="60" as="geometry" />
        </mxCell>
        <mxCell id="VpEmQQC8AgEX3v9Hny0l-19" style="edgeStyle=orthogonalEdgeStyle;rounded=0;orthogonalLoop=1;jettySize=auto;html=1;" edge="1" parent="1" source="VpEmQQC8AgEX3v9Hny0l-16">
          <mxGeometry relative="1" as="geometry">
            <mxPoint x="410" y="710" as="targetPoint" />
          </mxGeometry>
        </mxCell>
        <mxCell id="VpEmQQC8AgEX3v9Hny0l-16" value="Página Inicial" style="rounded=0;whiteSpace=wrap;html=1;" vertex="1" parent="1">
          <mxGeometry x="260" y="680" width="120" height="60" as="geometry" />
        </mxCell>
        <mxCell id="VpEmQQC8AgEX3v9Hny0l-18" value="logado" style="rounded=0;whiteSpace=wrap;html=1;" vertex="1" parent="1">
          <mxGeometry x="414" y="680" width="120" height="60" as="geometry" />
        </mxCell>
        <mxCell id="VpEmQQC8AgEX3v9Hny0l-20" value="alternativo" style="rounded=0;whiteSpace=wrap;html=1;" vertex="1" parent="1">
          <mxGeometry x="180" y="770" width="120" height="60" as="geometry" />
        </mxCell>
        <mxCell id="VpEmQQC8AgEX3v9Hny0l-21" value="Cadastrar-se" style="rounded=0;whiteSpace=wrap;html=1;" vertex="1" parent="1">
          <mxGeometry x="180" y="850" width="120" height="60" as="geometry" />
        </mxCell>
        <mxCell id="VpEmQQC8AgEX3v9Hny0l-22" value="Esqueceu a senha" style="rounded=0;whiteSpace=wrap;html=1;" vertex="1" parent="1">
          <mxGeometry x="180" y="920" width="120" height="60" as="geometry" />
        </mxCell>
      </root>
    </mxGraphModel>
  </diagram>
</mxfile>
